<svg width="956" height="1394" viewBox="0 0 956 1394" fill="none" xmlns="http://www.w3.org/2000/svg">
<a xlink:href="www.medium.com/p/f254e0f6b71a" target="__blank" class="dot-link">
<path class="dot" id="dot69" d="M437 1202C437 1197.58 440.582 1194 445 1194H629C633.418 1194 637 1197.58 637 1202V1386C637 1390.42 633.418 1394 629 1394H445C440.582 1394 437 1390.42 437 1386V1202Z" fill="url(#linear_gradient)"/>
<g id="leaf 1" class="dot-icon">
<path id="Vector" d="M564 1269.67C516 1280.33 504.8 1313.24 493.707 1340.81L503.787 1344.33L508.853 1332.07C511.413 1332.97 514.08 1333.67 516 1333.67C574.667 1333.67 590.667 1243 590.667 1243C585.333 1253.67 548 1255 521.333 1260.33C494.667 1265.67 484 1288.33 484 1299C484 1309.67 493.333 1319 493.333 1319C510.667 1269.67 564 1269.67 564 1269.67Z" fill="black"/>
</g>
</a>
<a xlink:href="www.medium.com/p/f254e0f6b71a" target="__blank" class="dot-link">
<path class="dot" id="dot67" d="M639 379C639 374.582 642.582 371 647 371H831C835.418 371 839 374.582 839 379V563C839 567.418 835.418 571 831 571H647C642.582 571 639 567.418 639 563V379Z" fill="url(#linear_gradient)"/>
<g id="blocks 1" class="dot-icon">
<g id="Group">
<path id="Vector_2" d="M781.667 423H755C752.054 423 749.667 425.388 749.667 428.333V455C749.667 457.946 752.054 460.333 755 460.333H781.667C784.612 460.333 787 457.946 787 455V428.333C787 425.388 784.612 423 781.667 423Z" stroke="black" stroke-width="8" stroke-linecap="round" stroke-linejoin="round"/>
<path id="Vector_3" d="M728.333 519V449.667C728.333 448.252 727.771 446.896 726.771 445.895C725.771 444.895 724.414 444.333 723 444.333H696.333C694.919 444.333 693.562 444.895 692.562 445.895C691.562 446.896 691 448.252 691 449.667V513.667C691 515.081 691.562 516.438 692.562 517.438C693.562 518.438 694.919 519 696.333 519H760.333C761.748 519 763.104 518.438 764.105 517.438C765.105 516.438 765.667 515.081 765.667 513.667V487C765.667 485.586 765.105 484.229 764.105 483.229C763.104 482.229 761.748 481.667 760.333 481.667H691" stroke="black" stroke-width="8" stroke-linecap="round" stroke-linejoin="round"/>
</g>
</g>
</a>
<a xlink:href="www.medium.com/p/f254e0f6b71a" target="__blank" class="dot-link">
<path class="dot" id="dot66_2" d="M0 266C0 261.582 3.58172 258 8 258H192C196.418 258 200 261.582 200 266V450C200 454.418 196.418 458 192 458H8C3.58173 458 0 454.418 0 450V266Z" fill="url(#linear_gradient)"/>
<g id="ok-hand 1" class="dot-icon">
<g id="Layer_1">
<g id="Group_2">
<g id="Group_3">
<path id="Vector_4" d="M113.93 350.52C104.42 350.52 84.7699 334.62 83.5799 333.65C81.2799 331.34 76.3999 325.36 79.2999 318.73C79.9199 317.3 81.2699 316.58 83.2899 316.58C85.7399 316.58 88.9099 317.69 91.7599 319.55L117.25 339.24C118.69 340.33 119.37 341.85 119.26 343.77C119.16 345.58 118.34 347.64 116.99 349.42C116.33 350.16 115.33 350.52 113.93 350.52Z" fill="black"/>
<path id="Vector_5" d="M83.2899 318.07C85.4499 318.07 88.2899 319.07 90.8899 320.76L116.35 340.44C117.37 341.21 117.83 342.27 117.75 343.68C117.67 345.18 116.97 346.92 115.82 348.46C115.64 348.65 115.17 349.02 113.91 349.02C106.31 349.02 90.2799 337.21 84.5799 332.54C82.4799 330.41 78.1499 325.07 80.6599 319.33C80.8399 318.95 81.2299 318.07 83.2899 318.07ZM83.2899 315.07C80.8599 315.07 78.8699 315.98 77.9299 318.12C75.2199 324.31 78.3199 330.5 82.5699 334.76C82.5699 334.76 103.51 352.02 113.92 352.02C115.68 352.02 117.14 351.52 118.15 350.37C121.13 346.43 122.1 341.03 118.16 338.05L92.6299 318.31C89.5999 316.32 86.1499 315.07 83.2899 315.07Z" fill="black"/>
</g>
<g id="Group_4">
<path id="Vector_6" d="M132.48 383.21C123.18 383.11 120.18 362.94 119.81 355.16C119.79 354.71 119.57 354.3 119.21 354.03C114.92 350.8 110.12 339.84 107.06 330.65C106.97 330.39 106.91 330.26 106.9 330.25C106.71 329.91 106.4 329.65 106.02 329.53C99.1499 327.42 88.6699 318.88 84.4799 313.94C82.1699 311.22 80.6899 305.45 82.2399 302.11C82.9899 300.49 84.3299 299.71 86.3399 299.71C88.8799 299.71 92.3799 301.01 96.4699 303.48C97.6099 304.31 117.15 318.57 122.27 324.24C127.48 330.01 133.91 342.87 133.97 343C142.22 360.42 141.01 376.11 140.6 379.67C137.18 381.31 133.33 383.03 132.48 383.21Z" fill="black"/>
<path id="Vector_7" d="M86.3499 301.21C87.9199 301.21 90.8099 301.82 95.6499 304.73C97.2199 305.87 116.22 319.75 121.17 325.24C126.14 330.74 132.31 343.02 132.63 343.64C140.17 359.59 139.63 374.09 139.21 378.67C136.34 380.03 133.3 381.38 132.31 381.69C124.97 381.29 121.74 363.66 121.32 355.08C121.28 354.19 120.84 353.36 120.13 352.82C117.62 350.93 113.06 343.86 108.5 330.17C108.42 329.93 108.36 329.76 108.23 329.52C107.85 328.83 107.23 328.32 106.48 328.09C103.47 327.16 99.3799 324.8 94.9499 321.43C91.2999 318.65 87.6399 315.32 85.6399 312.96C83.4299 310.36 82.4299 305.29 83.6099 302.73C83.9599 301.98 84.5599 301.21 86.3499 301.21ZM86.3499 298.21C77.8999 298.21 79.2199 310.05 83.3499 314.91C87.3299 319.6 98.0499 328.64 105.6 330.97C105.64 331.04 111.79 350.31 118.32 355.23C118.32 355.23 119.72 384.71 132.56 384.71C133.68 384.71 142 380.67 142 380.67C142 380.67 145 362.75 135.33 342.34C135.33 342.34 128.82 329.24 123.4 323.24C117.98 317.24 97.3099 302.24 97.3099 302.24C92.5599 299.36 88.9799 298.21 86.3499 298.21Z" fill="black"/>
</g>
<g id="Group_5">
<g id="Group_6">
<path id="Vector_8" d="M87.2699 416.3C85.0099 416.28 79.2899 413.05 78.4999 412.36C78.4599 412.32 78.3799 412.26 78.3399 412.23C78.2499 412.17 69.2899 405.76 64.7699 399.46C60.3299 393.28 58.8999 381.17 58.8899 381.05C58.3199 377.09 58.7499 372.07 63.9599 370.34C64.7899 370.06 65.6299 369.92 66.4699 369.92C70.3899 369.92 73.4699 372.91 75.0699 375.74C75.6699 377.25 81.8399 391.97 93.5899 391.97C95.5699 391.97 97.6099 391.54 99.6499 390.68C106.84 387.67 109.64 382.32 110.72 378.36C112.51 371.81 110.8 364.69 108.28 361.32C105.62 357.75 101 355.62 95.9399 355.62C93.9899 355.62 92.1099 355.94 90.5199 356.56C88.0899 357.5 85.8999 359.19 83.7799 360.82C81.6999 362.42 79.5499 364.08 77.1399 365.08C75.2399 365.87 73.4399 366.25 71.6299 366.25C68.6899 366.25 65.7899 365.22 62.7599 363.11C61.4199 362.18 60.7599 360.99 60.7999 359.58C60.8499 357.64 62.2399 355.52 64.3499 354.2C71.2699 349.37 81.7199 342.11 82.7099 341.5C86.0299 339.95 91.2699 338.68 94.4099 338.68C95.3899 338.68 95.9399 338.8 96.2299 338.89L117.78 345.89C122.36 347.42 129.22 358.04 132.52 363.15L133.43 364.55C133.49 364.64 133.55 364.72 133.62 364.79C133.7 364.87 141.94 373.23 140.3 380.45C139.6 383.53 136.87 390.41 132.41 400.33C128.07 409.99 118.04 416.24 106.87 416.25L87.2699 416.3Z" fill="black"/>
<path id="Vector_9" d="M94.4099 340.19C95.2799 340.19 95.6599 340.3 95.7799 340.33L117.29 347.32C121.38 348.68 128.3 359.4 131.26 363.97C131.59 364.48 131.89 364.95 132.17 365.38C132.28 365.55 132.41 365.72 132.56 365.86C134.72 368.02 140.05 374.78 138.83 380.12C138.36 382.2 136.62 387.29 131.03 399.72C126.93 408.84 117.44 414.74 106.85 414.76L87.2699 414.79C85.6999 414.78 80.5999 412.1 79.4699 411.21C79.3799 411.13 79.2899 411.05 79.1899 410.99C79.0999 410.93 70.3499 404.67 65.9699 398.57C61.7699 392.71 60.3799 380.98 60.3599 380.86C60.3599 380.83 60.3499 380.8 60.3499 380.77C59.6499 375.9 61.0199 372.86 64.4099 371.74C65.0899 371.51 65.7699 371.4 66.4499 371.4C69.6899 371.4 72.2999 373.94 73.6899 376.38C74.5399 378.47 81.0699 393.45 93.5699 393.45C95.7499 393.45 97.9899 392.98 100.21 392.05C107.96 388.81 110.97 383.02 112.14 378.74C114.07 371.65 112.25 364.15 109.46 360.41C106.52 356.47 101.45 354.11 95.9199 354.11C93.7899 354.11 91.7299 354.47 89.9699 355.15C87.3299 356.17 85.0599 357.92 82.8499 359.62C80.7599 361.24 78.7799 362.76 76.5499 363.69C74.8399 364.4 73.2199 364.75 71.6199 364.75C68.9999 364.75 66.3799 363.81 63.6099 361.88C62.6999 361.24 62.2599 360.5 62.2899 359.61C62.3199 358.18 63.4699 356.51 65.1399 355.46C65.1799 355.43 65.2199 355.41 65.2599 355.38C71.6599 350.91 82.0599 343.68 83.4199 342.81C86.5399 341.39 91.5299 340.19 94.4099 340.19ZM94.4099 337.19C90.7999 337.19 85.3099 338.62 82.0199 340.17C81.6699 340.29 63.5399 352.94 63.5399 352.94C59.2299 355.65 57.3999 361.21 61.8999 364.35C65.2599 366.7 68.4699 367.76 71.6299 367.76C73.6699 367.76 75.6899 367.31 77.7099 366.48C82.8399 364.35 86.5399 359.71 91.0499 357.97C92.4499 357.43 94.1399 357.13 95.9199 357.13C99.9099 357.13 104.36 358.61 107.06 362.22C110.96 367.44 113 383.46 99.0499 389.3C97.0999 390.12 95.2699 390.47 93.5699 390.47C82.3299 390.47 76.4099 375.1 76.4099 375.1C74.3999 371.47 70.7399 368.42 66.4599 368.42C65.4999 368.42 64.4999 368.57 63.4799 368.91C57.9399 370.74 56.6299 375.89 57.3899 381.21C57.3899 381.21 58.8199 393.75 63.5399 400.33C68.2599 406.91 77.4599 413.44 77.4599 413.44C78.2199 414.17 84.4499 417.78 87.2499 417.8L106.86 417.77C118.59 417.75 129.19 411.14 133.77 400.96C137.3 393.1 140.88 384.63 141.76 380.79C143.61 372.67 134.68 363.74 134.68 363.74C131.22 358.44 123.77 346.32 118.24 344.48L96.7099 337.48C96.1099 337.28 95.3199 337.19 94.4099 337.19Z" fill="black"/>
</g>
</g>
</g>
</g>
</g>
</a>
<a xlink:href="www.medium.com/p/f254e0f6b71a" target="__blank" class="dot-link">
<path class="dot" id="dot68" d="M319 796C319 791.582 322.582 788 327 788H511C515.418 788 519 791.582 519 796V980C519 984.418 515.418 988 511 988H327C322.582 988 319 984.418 319 980V796Z" fill="url(#linear_gradient)"/>
<g id="clock 1" class="dot-icon">
<path id="Vector_10" d="M419 834.667C411.996 834.667 405.061 836.046 398.59 838.726C392.119 841.407 386.24 845.335 381.288 850.288C371.286 860.29 365.667 873.855 365.667 888C365.667 902.145 371.286 915.71 381.288 925.712C386.24 930.665 392.119 934.593 398.59 937.274C405.061 939.954 411.996 941.333 419 941.333C433.145 941.333 446.71 935.714 456.712 925.712C466.714 915.71 472.333 902.145 472.333 888C472.333 880.996 470.954 874.061 468.274 867.59C465.593 861.12 461.665 855.24 456.712 850.288C451.76 845.335 445.88 841.407 439.41 838.726C432.939 836.046 426.004 834.667 419 834.667ZM441.4 910.4L413.667 893.333V861.333H421.667V889.067L445.667 903.467L441.4 910.4Z" fill="black"/>
</g>
</a>
<a xlink:href="www.medium.com/p/f254e0f6b71a" target="__blank" class="dot-link">
<path class="dot" id="dot65" d="M754 9C754 4.58173 757.582 1 762 1H946C950.418 1 954 4.58172 954 9V193C954 197.418 950.418 201 946 201H762C757.582 201 754 197.418 754 193V9Z" fill="url(#linear_gradient)"/>
<g id="crosshair 1" class="dot-icon">
<path id="Vector_11" d="M854 154.333C883.455 154.333 907.333 130.455 907.333 101C907.333 71.5448 883.455 47.6666 854 47.6666C824.545 47.6666 800.667 71.5448 800.667 101C800.667 130.455 824.545 154.333 854 154.333Z" stroke="black" stroke-width="12" stroke-linecap="round" stroke-linejoin="round"/>
<path id="Vector_12" d="M907.333 101H886" stroke="black" stroke-width="12" stroke-linecap="round" stroke-linejoin="round"/>
<path id="Vector_13" d="M822 101H800.667" stroke="black" stroke-width="12" stroke-linecap="round" stroke-linejoin="round"/>
<path id="Vector_14" d="M854 69V47.6666" stroke="black" stroke-width="12" stroke-linecap="round" stroke-linejoin="round"/>
<path id="Vector_15" d="M854 154.333V133" stroke="black" stroke-width="12" stroke-linecap="round" stroke-linejoin="round"/>
</g>
</a>
<path class="dot" id="dot64" d="M750 646C750 641.582 753.582 638 758 638H892C896.418 638 900 641.582 900 646V780C900 784.418 896.418 788 892 788H758C753.582 788 750 784.418 750 780V646Z" fill="url(#linear_gradient)"/>
<path class="dot" id="dot63" d="M377 534C377 529.582 380.582 526 385 526H519C523.418 526 527 529.582 527 534V668C527 672.418 523.418 676 519 676H385C380.582 676 377 672.418 377 668V534Z" fill="url(#linear_gradient)"/>
<path class="dot" id="dot62" d="M643 223C643 218.582 646.582 215 651 215H785C789.418 215 793 218.582 793 223V357C793 361.418 789.418 365 785 365H651C646.582 365 643 361.418 643 357V223Z" fill="url(#linear_gradient)"/>
<path class="dot" id="dot61" d="M318 118C318 113.582 321.582 110 326 110H460C464.418 110 468 113.582 468 118V252C468 256.418 464.418 260 460 260H326C321.582 260 318 256.418 318 252V118Z" fill="url(#linear_gradient)"/>
<path class="dot" id="dot60" d="M1 9C1 4.58172 4.58172 1 9 1H143C147.418 1 151 4.58172 151 9V143C151 147.418 147.418 151 143 151H9C4.58172 151 1 147.418 1 143V9Z" fill="url(#linear_gradient)" stroke="white"/>
<path class="dot" id="dot59" d="M537 1076C537 1071.58 540.582 1068 545 1068H629C633.418 1068 637 1071.58 637 1076V1160C637 1164.42 633.418 1168 629 1168H545C540.582 1168 537 1164.42 537 1160V1076Z" fill="url(#linear_gradient)"/>
<path class="dot" id="dot58" d="M321 1076C321 1071.58 324.582 1068 329 1068H413C417.418 1068 421 1071.58 421 1076V1160C421 1164.42 417.418 1168 413 1168H329C324.582 1168 321 1164.42 321 1160V1076Z" fill="url(#linear_gradient)"/>
<path class="dot" id="dot57" d="M528 796C528 791.582 531.582 788 536 788H620C624.418 788 628 791.582 628 796V880C628 884.418 624.418 888 620 888H536C531.582 888 528 884.418 528 880V796Z" fill="url(#linear_gradient)"/>
<path class="dot" id="dot56" d="M643 695C643 690.582 646.582 687 651 687H735C739.418 687 743 690.582 743 695V779C743 783.419 739.418 787 735 787H651C646.582 787 643 783.419 643 779V695Z" fill="url(#linear_gradient)"/>
<path class="dot" id="dot55" d="M319 690C319 685.582 322.582 682 327 682H411C415.418 682 419 685.582 419 690V774C419 778.418 415.418 782 411 782H327C322.582 782 319 778.418 319 774V690Z" fill="url(#linear_gradient)"/>
<path class="dot" id="dot54" d="M533 534C533 529.582 536.582 526 541 526H625C629.418 526 633 529.582 633 534V618C633 622.419 629.418 626 625 626H541C536.582 626 533 622.419 533 618V534Z" fill="url(#linear_gradient)"/>
<path class="dot" id="dot53" d="M850 479C850 474.582 853.582 471 858 471H942C946.418 471 950 474.582 950 479V563C950 567.418 946.418 571 942 571H858C853.582 571 850 567.418 850 563V479Z" fill="url(#linear_gradient)"/>
<path class="dot" id="dot52" d="M855 214C855 209.582 858.582 206 863 206H947C951.418 206 955 209.582 955 214V298C955 302.418 951.418 306 947 306H863C858.582 306 855 302.418 855 298V214Z" fill="url(#linear_gradient)"/>
<path class="dot" id="dot51" d="M208 212C208 207.582 211.582 204 216 204H300C304.418 204 308 207.582 308 212V296C308 300.418 304.418 304 300 304H216C211.582 304 208 300.418 208 296V212Z" fill="url(#linear_gradient)"/>
<path class="dot" id="dot50" d="M480 170C480 165.582 483.582 162 488 162H572C576.418 162 580 165.582 580 170V254C580 258.418 576.418 262 572 262H488C483.582 262 480 258.418 480 254V170Z" fill="url(#linear_gradient)"/>
<path class="dot" id="dot49" d="M648 9C648 4.58172 651.582 1 656 1H740C744.418 1 748 4.58172 748 9V93C748 97.4183 744.418 101 740 101H656C651.582 101 648 97.4183 648 93V9Z" fill="url(#linear_gradient)"/>
<path class="dot" id="dot48" d="M262 9C262 4.58172 265.582 1 270 1H354C358.418 1 362 4.58172 362 9V93C362 97.4183 358.418 101 354 101H270C265.582 101 262 97.4183 262 93V9Z" fill="url(#linear_gradient)"/>
<path class="dot" id="dot47" d="M326 1352C326 1347.58 329.582 1344 334 1344H368C372.418 1344 376 1347.58 376 1352V1386C376 1390.42 372.418 1394 368 1394H334C329.582 1394 326 1390.42 326 1386V1352Z" fill="url(#linear_gradient)"/>
<path class="dot" id="dot46" d="M381 1303C381 1298.58 384.582 1295 389 1295H423C427.418 1295 431 1298.58 431 1303V1337C431 1341.42 427.418 1345 423 1345H389C384.582 1345 381 1341.42 381 1337V1303Z" fill="url(#linear_gradient)"/>
<path class="dot" id="dot45" d="M326 1253C326 1248.58 329.582 1245 334 1245H368C372.418 1245 376 1248.58 376 1253V1287C376 1291.42 372.418 1295 368 1295H334C329.582 1295 326 1291.42 326 1287V1253Z" fill="url(#linear_gradient)"/>
<path class="dot" id="dot44" d="M381 1200C381 1195.58 384.582 1192 389 1192H423C427.418 1192 431 1195.58 431 1200V1234C431 1238.42 427.418 1242 423 1242H389C384.582 1242 381 1238.42 381 1234V1200Z" fill="url(#linear_gradient)"/>
<path class="dot" id="dot43" d="M427 1130C427 1125.58 430.582 1122 435 1122H469C473.418 1122 477 1125.58 477 1130V1164C477 1168.42 473.418 1172 469 1172H435C430.582 1172 427 1168.42 427 1164V1130Z" fill="url(#linear_gradient)"/>
<path class="dot" id="dot42" d="M482 1077C482 1072.58 485.582 1069 490 1069H524C528.418 1069 532 1072.58 532 1077V1111C532 1115.42 528.418 1119 524 1119H490C485.582 1119 482 1115.42 482 1111V1077Z" fill="url(#linear_gradient)"/>
<path class="dot" id="dot41" d="M585 943C585 938.582 588.582 935 593 935H627C631.418 935 635 938.582 635 943V977C635 981.418 631.418 985 627 985H593C588.582 985 585 981.418 585 977V943Z" fill="url(#linear_gradient)"/>
<path class="dot" id="dot40" d="M527 904C527 899.582 530.582 896 535 896H569C573.418 896 577 899.582 577 904V938C577 942.418 573.418 946 569 946H535C530.582 946 527 942.418 527 938V904Z" fill="url(#linear_gradient)"/>
<path class="dot" id="dot39" d="M905 746C905 741.582 908.582 738 913 738H947C951.418 738 955 741.582 955 746V780C955 784.418 951.418 788 947 788H913C908.582 788 905 784.418 905 780V746Z" fill="url(#linear_gradient)"/>
<path class="dot" id="dot38" d="M587 740C587 735.582 590.582 732 595 732H629C633.418 732 637 735.582 637 740V774C637 778.418 633.418 782 629 782H595C590.582 782 587 778.418 587 774V740Z" fill="url(#linear_gradient)"/>
<path class="dot" id="dot37" d="M479 742C479 737.582 482.582 734 487 734H521C525.418 734 529 737.582 529 742V776C529 780.418 525.418 784 521 784H487C482.582 784 479 780.418 479 776V742Z" fill="url(#linear_gradient)"/>
<path class="dot" id="dot36" d="M532 689C532 684.582 535.582 681 540 681H574C578.418 681 582 684.582 582 689V723C582 727.418 578.418 731 574 731H540C535.582 731 532 727.418 532 723V689Z" fill="url(#linear_gradient)"/>
<path class="dot" id="dot35" d="M425 689C425 684.582 428.582 681 433 681H467C471.418 681 475 684.582 475 689V723C475 727.418 471.418 731 467 731H433C428.582 731 425 727.418 425 723V689Z" fill="url(#linear_gradient)"/>
<path class="dot" id="dot34" d="M905 646C905 641.582 908.582 638 913 638H947C951.418 638 955 641.582 955 646V680C955 684.418 951.418 688 947 688H913C908.582 688 905 684.418 905 680V646Z" fill="url(#linear_gradient)"/>
<path class="dot" id="dot33" d="M692 638C692 633.582 695.582 630 700 630H734C738.418 630 742 633.582 742 638V672C742 676.418 738.418 680 734 680H700C695.582 680 692 676.418 692 672V638Z" fill="url(#linear_gradient)"/>
<path class="dot" id="dot32" d="M588 642C588 637.582 591.582 634 596 634H630C634.418 634 638 637.582 638 642V676C638 680.418 634.418 684 630 684H596C591.582 684 588 680.418 588 676V642Z" fill="url(#linear_gradient)"/>
<path class="dot" id="dot31" d="M320 635C320 630.582 323.582 627 328 627H362C366.418 627 370 630.582 370 635V669C370 673.418 366.418 677 362 677H328C323.582 677 320 673.418 320 669V635Z" fill="url(#linear_gradient)"/>
<path class="dot" id="dot30" d="M851 586C851 581.582 854.582 578 859 578H893C897.418 578 901 581.582 901 586V620C901 624.418 897.418 628 893 628H859C854.582 628 851 624.418 851 620V586Z" fill="url(#linear_gradient)"/>
<path class="dot" id="dot29" d="M746 587C746 582.582 749.582 579 754 579H788C792.418 579 796 582.582 796 587V621C796 625.418 792.418 629 788 629H754C749.582 629 746 625.418 746 621V587Z" fill="url(#linear_gradient)"/>
<path class="dot" id="dot28" d="M640 586C640 581.582 643.582 578 648 578H682C686.418 578 690 581.582 690 586V620C690 624.418 686.418 628 682 628H648C643.582 628 640 624.418 640 620V586Z" fill="url(#linear_gradient)"/>
<path class="dot" id="dot27" d="M320 534C320 529.582 323.582 526 328 526H362C366.418 526 370 529.582 370 534V568C370 572.418 366.418 576 362 576H328C323.582 576 320 572.418 320 568V534Z" fill="url(#linear_gradient)"/>
<path class="dot" id="dot26" d="M901 423C901 418.582 904.582 415 909 415H943C947.418 415 951 418.582 951 423V457C951 461.418 947.418 465 943 465H909C904.582 465 901 461.418 901 457V423Z" fill="url(#linear_gradient)"/>
<path class="dot" id="dot25" d="M264 416C264 411.582 267.582 408 272 408H306C310.418 408 314 411.582 314 416V450C314 454.418 310.418 458 306 458H272C267.582 458 264 454.418 264 450V416Z" fill="url(#linear_gradient)"/>
<path class="dot" id="dot24" d="M849 369C849 364.582 852.582 361 857 361H891C895.418 361 899 364.582 899 369V403C899 407.418 895.418 411 891 411H857C852.582 411 849 407.418 849 403V369Z" fill="url(#linear_gradient)"/>
<path class="dot" id="dot23" d="M207 366C207 361.582 210.582 358 215 358H249C253.418 358 257 361.582 257 366V400C257 404.418 253.418 408 249 408H215C210.582 408 207 404.418 207 400V366Z" fill="url(#linear_gradient)"/>
<path class="dot" id="dot22" d="M903 319C903 314.582 906.582 311 911 311H945C949.418 311 953 314.582 953 319V353C953 357.418 949.418 361 945 361H911C906.582 361 903 357.418 903 353V319Z" fill="url(#linear_gradient)"/>
<path class="dot" id="dot21" d="M802 313C802 308.582 805.582 305 810 305H844C848.418 305 852 308.582 852 313V347C852 351.418 848.418 355 844 355H810C805.582 355 802 351.418 802 347V313Z" fill="url(#linear_gradient)"/>
<path class="dot" id="dot20" d="M264 316C264 311.582 267.582 308 272 308H306C310.418 308 314 311.582 314 316V350C314 354.418 310.418 358 306 358H272C267.582 358 264 354.418 264 350V316Z" fill="url(#linear_gradient)"/>
<path class="dot" id="dot19" d="M800 214C800 209.582 803.582 206 808 206H842C846.418 206 850 209.582 850 214V248C850 252.418 846.418 256 842 256H808C803.582 256 800 252.418 800 248V214Z" fill="url(#linear_gradient)"/>
<path class="dot" id="dot18" d="M587 219C587 214.582 590.582 211 595 211H629C633.418 211 637 214.582 637 219V253C637 257.418 633.418 261 629 261H595C590.582 261 587 257.418 587 253V219Z" fill="url(#linear_gradient)"/>
<path class="dot" id="dot17" d="M105 213C105 208.582 108.582 205 113 205H147C151.418 205 155 208.582 155 213V247C155 251.418 151.418 255 147 255H113C108.582 255 105 251.418 105 247V213Z" fill="url(#linear_gradient)"/>
<path class="dot" id="dot16" d="M1 213C1 208.582 4.58172 205 9 205H43C47.4183 205 51 208.582 51 213V247C51 251.418 47.4183 255 43 255H9C4.58172 255 1 251.418 1 247V213Z" fill="url(#linear_gradient)"/>
<path class="dot" id="dot15" d="M644 168C644 163.582 647.582 160 652 160H686C690.418 160 694 163.582 694 168V202C694 206.418 690.418 210 686 210H652C647.582 210 644 206.418 644 202V168Z" fill="url(#linear_gradient)"/>
<path class="dot" id="dot14" d="M261 157C261 152.582 264.582 149 269 149H303C307.418 149 311 152.582 311 157V191C311 195.418 307.418 199 303 199H269C264.582 199 261 195.418 261 191V157Z" fill="url(#linear_gradient)"/>
<path class="dot" id="dot13" d="M156 159C156 154.582 159.582 151 164 151H198C202.418 151 206 154.582 206 159V193C206 197.418 202.418 201 198 201H164C159.582 201 156 197.418 156 193V159Z" fill="url(#linear_gradient)"/>
<path class="dot" id="dot12" d="M51 161C51 156.582 54.5817 153 59 153H93C97.4183 153 101 156.582 101 161V195C101 199.418 97.4183 203 93 203H59C54.5817 203 51 199.418 51 195V161Z" fill="url(#linear_gradient)"/>
<path class="dot" id="dot11" d="M697 115C697 110.582 700.582 107 705 107H739C743.418 107 747 110.582 747 115V149C747 153.418 743.418 157 739 157H705C700.582 157 697 153.418 697 149V115Z" fill="url(#linear_gradient)"/>
<path class="dot" id="dot10" d="M591 112C591 107.582 594.582 104 599 104H633C637.418 104 641 107.582 641 112V146C641 150.418 637.418 154 633 154H599C594.582 154 591 150.418 591 146V112Z" fill="url(#linear_gradient)"/>
<path class="dot" id="dot9" d="M478 113C478 108.582 481.582 105 486 105H520C524.418 105 528 108.582 528 113V147C528 151.418 524.418 155 520 155H486C481.582 155 478 151.418 478 147V113Z" fill="url(#linear_gradient)"/>
<path class="dot" id="dot8" d="M208 105C208 100.582 211.582 97 216 97H250C254.418 97 258 100.582 258 105V139C258 143.418 254.418 147 250 147H216C211.582 147 208 143.418 208 139V105Z" fill="url(#linear_gradient)"/>
<path class="dot" id="dot7" d="M534 61C534 56.5817 537.582 53 542 53H576C580.418 53 584 56.5817 584 61V95C584 99.4183 580.418 103 576 103H542C537.582 103 534 99.4183 534 95V61Z" fill="url(#linear_gradient)"/>
<path class="dot" id="dot6" d="M423 59C423 54.5817 426.582 51 431 51H465C469.418 51 473 54.5817 473 59V93C473 97.4183 469.418 101 465 101H431C426.582 101 423 97.4183 423 93V59Z" fill="url(#linear_gradient)"/>
<path class="dot" id="dot5" d="M154 54C154 49.5817 157.582 46 162 46H196C200.418 46 204 49.5817 204 54V88C204 92.4183 200.418 96 196 96H162C157.582 96 154 92.4183 154 88V54Z" fill="url(#linear_gradient)"/>
<path class="dot" id="dot4" d="M589 9C589 4.58172 592.582 1 597 1H631C635.418 1 639 4.58172 639 9V43C639 47.4183 635.418 51 631 51H597C592.582 51 589 47.4183 589 43V9Z" fill="url(#linear_gradient)"/>
<path class="dot" id="dot3" d="M478 9C478 4.58172 481.582 1 486 1H520C524.418 1 528 4.58172 528 9V43C528 47.4183 524.418 51 520 51H486C481.582 51 478 47.4183 478 43V9Z" fill="url(#linear_gradient)"/>
<path class="dot" id="dot2" d="M367 9C367 4.58172 370.582 1 375 1H409C413.418 1 417 4.58172 417 9V43C417 47.4183 413.418 51 409 51H375C370.582 51 367 47.4183 367 43V9Z" fill="url(#linear_gradient)"/>
<path class="dot" id="dot1" d="M209 9C209 4.58172 212.582 1 217 1H251C255.418 1 259 4.58172 259 9V43C259 47.4183 255.418 51 251 51H217C212.582 51 209 47.4183 209 43V9Z" fill="url(#linear_gradient)"/>
</g>
<defs>
<linearGradient id="linear_gradient" y1="1">
<stop stop-color="white"/>
<stop offset="1" stop-color="#FFFDFD" stop-opacity="0.34"/>
</linearGradient>
</defs>
</svg>
