<?xml version="1.0" encoding="utf-8"?>
<!-- Generator: Adobe Illustrator 24.1.1, SVG Export Plug-In . SVG Version: 6.00 Build 0)  -->
<svg version="1.1" id="Layer_1" xmlns="http://www.w3.org/2000/svg" xmlns:xlink="http://www.w3.org/1999/xlink" x="0px" y="0px"
	 viewBox="0 0 512 512" style="enable-background:new 0 0 512 512;" xml:space="preserve">
<g>
	<path d="M426.7,0H85.3C37,0,0,37,0,85.3v341.3C0,475,37,512,85.3,512h341.3c48.4,0,85.3-37,85.3-85.3V85.3C512,37,475,0,426.7,0z
		 M256,170.7c48.4,0,85.3,37,85.3,85.3s-37,85.3-85.3,85.3s-85.3-37-85.3-85.3S207.6,170.7,256,170.7z M364.1,113.8
		c0-19.9,17.1-34.1,34.1-34.1c17.1,0,34.1,17.1,34.1,34.1s-14.2,34.1-34.1,34.1C378.3,147.9,364.1,133.7,364.1,113.8z M426.7,455.1
		H85.3c-17.1,0-28.4-11.4-28.4-28.4V256h56.9c0,79.6,62.6,142.2,142.2,142.2S398.2,335.6,398.2,256h56.9v170.7
		C455.1,443.7,443.7,455.1,426.7,455.1z"/>
</g>
</svg>
