<?xml version="1.0" encoding="utf-8"?>
<!-- Generator: Adobe Illustrator 24.1.1, SVG Export Plug-In . SVG Version: 6.00 Build 0)  -->
<svg version="1.1" id="Layer_1" xmlns="http://www.w3.org/2000/svg" xmlns:xlink="http://www.w3.org/1999/xlink" x="0px" y="0px"
	 viewBox="0 0 512 512" style="enable-background:new 0 0 512 512;" xml:space="preserve">
<style type="text/css">
	.st0{fill:#231F20;}
</style>
<g>
	<path class="st0" d="M474.6,0H37.4C15.8,0,0,15.8,0,37.4v437.2C0,494.3,17.7,512,37.4,512h437.2c21.7,0,37.4-15.8,37.4-37.4V37.4
		C512,15.8,494.3,0,474.6,0z M157.5,433.2H78.8V196.9h78.8V433.2z M118.2,165.4c-25.6,0-47.3-21.7-47.3-47.3s21.7-47.3,47.3-47.3
		s47.3,21.7,47.3,47.3S143.8,165.4,118.2,165.4z M433.2,433.2h-78.8V315.1c0-31.5-7.9-63-39.4-63s-39.4,31.5-39.4,63v118.2h-78.8
		V196.9h78.8v27.6h3.9c9.8-19.7,35.4-35.4,65-35.4c72.9,0,88.6,47.3,88.6,106.3V433.2z"/>
</g>
</svg>
