<svg viewBox="0 0 128 128">
  <g id="Layer_1">
    <g>
      <g>
        <path
          d="M77.93,56.52c-9.51,0-29.16-15.9-30.35-16.87c-2.3-2.31-7.18-8.29-4.28-14.92 c0.62-1.43,1.97-2.15,3.99-2.15c2.45,0,5.62,1.11,8.47,2.97l25.49,19.69c1.44,1.09,2.12,2.61,2.01,4.53 c-0.1,1.81-0.92,3.87-2.27,5.65C80.33,56.16,79.33,56.52,77.93,56.52z" />
        <path
          d="M47.29,24.07L47.29,24.07c2.16,0,5,1,7.6,2.69l25.46,19.68c1.02,0.77,1.48,1.83,1.4,3.24 c-0.08,1.5-0.78,3.24-1.93,4.78c-0.18,0.19-0.65,0.56-1.91,0.56c-7.6,0-23.63-11.81-29.33-16.48c-2.1-2.13-6.43-7.47-3.92-13.21 C44.84,24.95,45.23,24.07,47.29,24.07 M47.29,21.07c-2.43,0-4.42,0.91-5.36,3.05c-2.71,6.19,0.39,12.38,4.64,16.64 c0,0,20.94,17.26,31.35,17.26c1.76,0,3.22-0.5,4.23-1.65c2.98-3.94,3.95-9.34,0.01-12.32L56.63,24.31 C53.6,22.32,50.15,21.07,47.29,21.07L47.29,21.07z" />
      </g>
      <g>
        <path
          d="M96.48,89.21c-9.3-0.1-12.3-20.27-12.67-28.05c-0.02-0.45-0.24-0.86-0.6-1.13 c-4.29-3.23-9.09-14.19-12.15-23.38c-0.09-0.26-0.15-0.39-0.16-0.4c-0.19-0.34-0.5-0.6-0.88-0.72 c-6.87-2.11-17.35-10.65-21.54-15.59c-2.31-2.72-3.79-8.49-2.24-11.83c0.75-1.62,2.09-2.4,4.1-2.4c2.54,0,6.04,1.3,10.13,3.77 c1.14,0.83,20.68,15.09,25.8,20.76c5.21,5.77,11.64,18.63,11.7,18.76c8.25,17.42,7.04,33.11,6.63,36.67 C101.18,87.31,97.33,89.03,96.48,89.21z" />
        <path
          d="M50.35,7.21c1.57,0,4.46,0.61,9.3,3.52c1.57,1.14,20.57,15.02,25.52,20.51 c4.97,5.5,11.14,17.78,11.46,18.4c7.54,15.95,7,30.45,6.58,35.03c-2.87,1.36-5.91,2.71-6.9,3.02 c-7.34-0.4-10.57-18.03-10.99-26.61c-0.04-0.89-0.48-1.72-1.19-2.26c-2.51-1.89-7.07-8.96-11.63-22.65 c-0.08-0.24-0.14-0.41-0.27-0.65c-0.38-0.69-1-1.2-1.75-1.43c-3.01-0.93-7.1-3.29-11.53-6.66c-3.65-2.78-7.31-6.11-9.31-8.47 c-2.21-2.6-3.21-7.67-2.03-10.23C47.96,7.98,48.56,7.21,50.35,7.21 M50.35,4.21c-8.45,0-7.13,11.84-3,16.7 c3.98,4.69,14.7,13.73,22.25,16.06c0.04,0.07,6.19,19.34,12.72,24.26c0,0,1.4,29.48,14.24,29.48c1.12,0,9.44-4.04,9.44-4.04 s3-17.92-6.67-38.33c0,0-6.51-13.1-11.93-19.1s-26.09-21-26.09-21C56.56,5.36,52.98,4.21,50.35,4.21L50.35,4.21z" />
      </g>
      <g>
        <g>
          <path
            d="M51.27,122.3c-2.26-0.02-7.98-3.25-8.77-3.94c-0.04-0.04-0.12-0.1-0.16-0.13 c-0.09-0.06-9.05-6.47-13.57-12.77c-4.44-6.18-5.87-18.29-5.88-18.41c-0.57-3.96-0.14-8.98,5.07-10.71 c0.83-0.28,1.67-0.42,2.51-0.42c3.92,0,7,2.99,8.6,5.82c0.6,1.51,6.77,16.23,18.52,16.23c1.98,0,4.02-0.43,6.06-1.29 c7.19-3.01,9.99-8.36,11.07-12.32c1.79-6.55,0.08-13.67-2.44-17.04c-2.66-3.57-7.28-5.7-12.34-5.7c-1.95,0-3.83,0.32-5.42,0.94 c-2.43,0.94-4.62,2.63-6.74,4.26c-2.08,1.6-4.23,3.26-6.64,4.26c-1.9,0.79-3.7,1.17-5.51,1.17c-2.94,0-5.84-1.03-8.87-3.14 c-1.34-0.93-2-2.12-1.96-3.53c0.05-1.94,1.44-4.06,3.55-5.38c6.92-4.83,17.37-12.09,18.36-12.7c3.32-1.55,8.56-2.82,11.7-2.82 c0.98,0,1.53,0.12,1.82,0.21l21.55,7c4.58,1.53,11.44,12.15,14.74,17.26l0.91,1.4c0.06,0.09,0.12,0.17,0.19,0.24 c0.08,0.08,8.32,8.44,6.68,15.66c-0.7,3.08-3.43,9.96-7.89,19.88c-4.34,9.66-14.37,15.91-25.54,15.92L51.27,122.3z" />
          <path
            d="M58.41,46.19c0.87,0,1.25,0.11,1.37,0.14l21.51,6.99c4.09,1.36,11.01,12.08,13.97,16.65 c0.33,0.51,0.63,0.98,0.91,1.41c0.11,0.17,0.24,0.34,0.39,0.48c2.16,2.16,7.49,8.92,6.27,14.26c-0.47,2.08-2.21,7.17-7.8,19.6 c-4.1,9.12-13.59,15.02-24.18,15.04l-19.58,0.03c-1.57-0.01-6.67-2.69-7.8-3.58c-0.09-0.08-0.18-0.16-0.28-0.22 c-0.09-0.06-8.84-6.32-13.22-12.42c-4.2-5.86-5.59-17.59-5.61-17.71c0-0.03-0.01-0.06-0.01-0.09c-0.7-4.87,0.67-7.91,4.06-9.03 c0.68-0.23,1.36-0.34,2.04-0.34c3.24,0,5.85,2.54,7.24,4.98c0.85,2.09,7.38,17.07,19.88,17.07c2.18,0,4.42-0.47,6.64-1.4 c7.75-3.24,10.76-9.03,11.93-13.31c1.93-7.09,0.11-14.59-2.68-18.33c-2.94-3.94-8.01-6.3-13.54-6.3c-2.13,0-4.19,0.36-5.95,1.04 c-2.64,1.02-4.91,2.77-7.12,4.47c-2.09,1.62-4.07,3.14-6.3,4.07c-1.71,0.71-3.33,1.06-4.93,1.06c-2.62,0-5.24-0.94-8.01-2.87 c-0.91-0.64-1.35-1.38-1.32-2.27c0.03-1.43,1.18-3.1,2.85-4.15c0.04-0.03,0.08-0.05,0.12-0.08c6.4-4.47,16.8-11.7,18.16-12.57 C50.54,47.39,55.53,46.19,58.41,46.19 M58.41,43.19c-3.61,0-9.1,1.43-12.39,2.98c-0.35,0.12-18.48,12.77-18.48,12.77 c-4.31,2.71-6.14,8.27-1.64,11.41c3.36,2.35,6.57,3.41,9.73,3.41c2.04,0,4.06-0.45,6.08-1.28c5.13-2.13,8.83-6.77,13.34-8.51 c1.4-0.54,3.09-0.84,4.87-0.84c3.99,0,8.44,1.48,11.14,5.09c3.9,5.22,5.94,21.24-8.01,27.08c-1.95,0.82-3.78,1.17-5.48,1.17 c-11.24,0-17.16-15.37-17.16-15.37c-2.01-3.63-5.67-6.68-9.95-6.68c-0.96,0-1.96,0.15-2.98,0.49c-5.54,1.83-6.85,6.98-6.09,12.3 c0,0,1.43,12.54,6.15,19.12c4.72,6.58,13.92,13.11,13.92,13.11c0.76,0.73,6.99,4.34,9.79,4.36l19.61-0.03 c11.73-0.02,22.33-6.63,26.91-16.81c3.53-7.86,7.11-16.33,7.99-20.17c1.85-8.12-7.08-17.05-7.08-17.05 c-3.46-5.3-10.91-17.42-16.44-19.26l-21.53-7C60.11,43.28,59.32,43.19,58.41,43.19L58.41,43.19z" />
        </g>
      </g>
    </g>
  </g>
</svg>
